<svg xmlns="http://www.w3.org/2000/svg" width="1em" height="1em" viewBox="0 0 24 24"><path fill="#cba6f7" d="M16.775 19.575q-.275.175-.55.325t-.575.275q-.375.175-.762 0t-.538-.575q-.15-.375.038-.737t.562-.538q.175-.075.325-.162t.3-.188L12 14.8v2.775q0 .675-.612.938T10.3 18.3L7 15H4q-.425 0-.712-.288T3 14v-4q0-.425.288-.712T4 9h2.2L2.1 4.9q-.275-.275-.275-.7t.275-.7q.275-.275.7-.275t.7.275l17 17q.275.275.275.7t-.275.7q-.275.275-.7.275t-.7-.275zM19.6 16.8l-1.45-1.45q.425-.775.638-1.625t.212-1.75q0-2.075-1.1-3.787t-2.95-2.563q-.375-.175-.55-.537t-.05-.738q.15-.4.538-.575t.787 0Q18.1 4.85 19.55 7.05T21 11.975q0 1.325-.363 2.55T19.6 16.8m-3.35-3.35L14 11.2V8.85q0-.3.263-.437t.512.012Q15.6 8.95 16.05 10t.45 2q0 .375-.063.738t-.187.712M12 9.2L9.4 6.6l.9-.9q.475-.475 1.088-.213t.612.938z"/></svg>